# Blender v2.78 (sub 0) OBJ File: ''
# www.blender.org
mtllib Crate3.mtl
o Crate_3_Cube.001
v -4.512035 0.262186 3.647385
v -4.512035 12.013923 3.647383
v -4.512035 0.262185 -3.647383
v -4.512035 12.013921 -3.647385
v 4.512035 0.262186 3.647385
v 4.512035 12.013923 3.647383
v 4.512035 0.262185 -3.647383
v 4.512035 12.013921 -3.647385
v 4.295022 12.213994 3.312550
v 4.295022 11.528955 3.312550
v 4.295022 12.213996 3.982186
v 4.295022 11.528956 3.982186
v -4.295022 12.213994 3.312550
v -4.295022 11.528955 3.312550
v -4.295022 12.213996 3.982186
v -4.295022 11.528956 3.982186
v 4.295022 0.233145 3.312552
v 4.295022 1.103959 3.312552
v 4.295022 0.233145 3.982188
v 4.295022 1.103959 3.982188
v -4.295022 0.233145 3.312552
v -4.295022 1.103959 3.312552
v -4.295022 0.233145 3.982188
v -4.295022 1.103959 3.982188
v 4.295022 12.213992 -3.312552
v 4.295022 11.528953 -3.312552
v 4.295022 12.213994 -3.982187
v 4.295022 11.528955 -3.982187
v -4.295022 12.213992 -3.312552
v -4.295022 11.528953 -3.312552
v -4.295022 12.213994 -3.982187
v -4.295022 11.528955 -3.982187
v 4.295022 0.233144 -3.312550
v 4.295022 1.103958 -3.312550
v 4.295022 0.233144 -3.982185
v 4.295022 1.103958 -3.982186
v -4.295022 0.233144 -3.312550
v -4.295022 1.103958 -3.312550
v -4.295022 0.233144 -3.982185
v -4.295022 1.103958 -3.982186
v -4.752812 1.386326 3.197808
v -4.752812 2.020160 3.647865
v -4.116336 1.383928 3.197808
v -4.116336 2.017263 3.647865
v -4.752812 11.192521 -3.647865
v -4.752812 11.670245 -3.197808
v -4.116336 11.182803 -3.647865
v -4.116336 11.660321 -3.197808
v -4.781466 1.119676 -3.197806
v -4.781466 1.743171 -3.647863
v -4.144990 1.118297 -3.197806
v -4.144990 1.741479 -3.647863
v -4.781466 10.962274 3.647863
v -4.781466 11.456809 3.197806
v -4.144990 10.956273 3.647863
v -4.144990 11.450633 3.197806
v -4.916306 11.964049 3.316941
v -4.916306 11.961373 4.015486
v -4.217759 11.971910 3.316941
v -4.217759 11.969211 4.015486
v -5.037657 12.313157 4.056878
v -5.037657 11.350934 4.056878
v -4.096408 12.323480 4.056878
v -4.096408 11.361104 4.056878
v -4.916306 11.964047 -3.316942
v -4.916306 11.961371 -4.015488
v -4.217759 11.971908 -3.316942
v -4.217759 11.969209 -4.015488
v -5.037657 12.313155 -4.056880
v -5.037657 11.350932 -4.056880
v -4.096408 12.323478 -4.056880
v -4.096408 11.361102 -4.056880
v -4.916306 0.540230 3.316942
v -4.916306 0.539773 4.015488
v -4.217759 0.541570 3.316942
v -4.217759 0.541111 4.015488
v -5.037657 0.060836 4.056880
v -5.037657 1.281192 4.056880
v -4.096408 0.062203 4.056880
v -4.096408 1.283621 4.056880
v -4.916306 0.540229 -3.316940
v -4.916306 0.539771 -4.015486
v -4.217759 0.541569 -3.316940
v -4.217759 0.541110 -4.015486
v -5.037657 0.060835 -4.056878
v -5.037657 1.281191 -4.056878
v -4.096408 0.062202 -4.056878
v -4.096408 1.283619 -4.056878
v 4.752812 1.386326 3.197808
v 4.752812 2.020160 3.647865
v 4.116336 1.383928 3.197808
v 4.116336 2.017263 3.647865
v 4.752812 11.192521 -3.647865
v 4.752812 11.670245 -3.197808
v 4.116336 11.182803 -3.647865
v 4.116336 11.660321 -3.197808
v 4.781466 1.119676 -3.197806
v 4.781466 1.743171 -3.647863
v 4.144990 1.118297 -3.197806
v 4.144990 1.741479 -3.647863
v 4.781466 10.962274 3.647863
v 4.781466 11.456809 3.197806
v 4.144990 10.956273 3.647863
v 4.144990 11.450633 3.197806
v 4.916306 11.964049 3.316941
v 4.916306 11.961373 4.015486
v 4.217759 11.971910 3.316941
v 4.217759 11.969211 4.015486
v 5.037657 12.313157 4.056878
v 5.037657 11.350934 4.056878
v 4.096407 12.323480 4.056878
v 4.096407 11.361104 4.056878
v 4.916306 11.964047 -3.316942
v 4.916306 11.961371 -4.015488
v 4.217759 11.971908 -3.316942
v 4.217759 11.969209 -4.015488
v 5.037657 12.313155 -4.056880
v 5.037657 11.350932 -4.056880
v 4.096407 12.323478 -4.056880
v 4.096407 11.361102 -4.056880
v 4.916306 0.540230 3.316942
v 4.916306 0.539773 4.015488
v 4.217759 0.541570 3.316942
v 4.217759 0.541111 4.015488
v 5.037657 0.060836 4.056880
v 5.037657 1.281193 4.056880
v 4.096407 0.062203 4.056880
v 4.096407 1.283621 4.056880
v 4.916306 0.540229 -3.316940
v 4.916306 0.539771 -4.015486
v 4.217759 0.541569 -3.316940
v 4.217759 0.541110 -4.015486
v 5.037657 0.060835 -4.056878
v 5.037657 1.281191 -4.056878
v 4.096407 0.062202 -4.056878
v 4.096407 1.283619 -4.056878
vt 0.3825 0.3805
vt 0.0239 0.3805
vt 0.0239 0.0220
vt 0.3825 0.0220
vt 0.3825 0.3805
vt 0.0239 0.3805
vt 0.0239 0.0220
vt 0.3825 0.3805
vt 0.0239 0.0220
vt 0.3825 0.0220
vt 0.3825 0.3805
vt 0.0239 0.0220
vt 0.0239 0.3805
vt 0.3825 0.0220
vt 0.7175 0.7195
vt 0.0285 0.7195
vt 0.0285 0.7868
vt 0.7175 0.7868
vt 0.7175 0.9213
vt 0.0285 0.9213
vt 0.0285 0.9885
vt 0.7175 0.9885
vt 0.7175 0.8540
vt 0.0285 0.8540
vt 0.7175 0.9214
vt 0.0285 0.9214
vt 0.0285 0.9887
vt 0.7175 0.9887
vt 0.7175 0.7196
vt 0.0285 0.7196
vt 0.0285 0.7869
vt 0.7175 0.7869
vt 0.0285 0.8541
vt 0.7175 0.8541
vt 0.7175 0.7195
vt 0.7175 0.7868
vt 0.0285 0.7868
vt 0.0285 0.7195
vt 0.7175 0.9213
vt 0.7175 0.9885
vt 0.0285 0.9885
vt 0.0285 0.9213
vt 0.7175 0.8540
vt 0.0285 0.8540
vt 0.7175 0.9214
vt 0.7175 0.9887
vt 0.0285 0.9887
vt 0.0285 0.9214
vt 0.7175 0.7196
vt 0.7175 0.7869
vt 0.0285 0.7869
vt 0.0285 0.7196
vt 0.7175 0.8541
vt 0.0285 0.8541
vt 0.4416 0.1918
vt 0.4416 0.1563
vt 0.9819 0.1563
vt 0.9819 0.1918
vt 0.4416 0.1207
vt 0.9819 0.1207
vt 0.4436 0.2310
vt 0.9819 0.2273
vt 0.9819 0.0850
vt 0.4416 0.0850
vt 0.4416 0.0495
vt 0.9819 0.0495
vt 0.4416 0.0139
vt 0.9819 0.0139
vt 0.9819 0.1207
vt 0.4416 0.1207
vt 0.9878 0.3437
vt 0.4426 0.3437
vt 0.4426 0.2974
vt 0.9878 0.2974
vt 0.4386 0.2477
vt 0.9878 0.2510
vt 0.9878 0.4364
vt 0.4426 0.4364
vt 0.4426 0.3901
vt 0.9878 0.3901
vt 0.9293 0.5804
vt 0.4093 0.5804
vt 0.4093 0.6407
vt 0.9293 0.6407
vt 0.4093 0.7010
vt 0.9293 0.7010
vt 0.9293 0.4597
vt 0.4093 0.4597
vt 0.4093 0.5200
vt 0.9293 0.5200
vt 0.9878 0.3437
vt 0.4426 0.3437
vt 0.4426 0.2974
vt 0.9878 0.2974
vt 0.9896 0.6407
vt 0.9896 0.5804
vt 0.9878 0.3901
vt 0.4426 0.3901
vt 0.9878 0.4364
vt 0.4426 0.4364
vt 0.4386 0.2477
vt 0.9878 0.2510
vt 0.9293 0.6407
vt 0.4093 0.6407
vt 0.4093 0.5804
vt 0.9293 0.5804
vt 0.3489 0.6407
vt 0.3489 0.5804
vt 0.9293 0.7010
vt 0.4093 0.7010
vt 0.9293 0.5200
vt 0.4093 0.5200
vt 0.4093 0.4597
vt 0.9293 0.4597
vt 0.9896 0.6407
vt 0.9896 0.5804
vt 0.3489 0.6407
vt 0.3489 0.5804
vt 0.4416 0.1918
vt 0.9819 0.1918
vt 0.9819 0.1563
vt 0.4416 0.1563
vt 0.9819 0.1207
vt 0.4416 0.1207
vt 0.4436 0.2310
vt 0.9819 0.2273
vt 0.9819 0.0850
vt 0.9819 0.0495
vt 0.4416 0.0495
vt 0.4416 0.0850
vt 0.9819 0.0139
vt 0.4416 0.0139
vt 0.9819 0.1207
vt 0.4416 0.1207
vt 0.9878 0.3437
vt 0.9878 0.2974
vt 0.4426 0.2974
vt 0.4426 0.3437
vt 0.9878 0.2510
vt 0.4386 0.2477
vt 0.9878 0.4364
vt 0.9878 0.3901
vt 0.4426 0.3901
vt 0.4426 0.4364
vt 0.9293 0.5804
vt 0.9293 0.6407
vt 0.4093 0.6407
vt 0.4093 0.5804
vt 0.9293 0.7010
vt 0.4093 0.7010
vt 0.9293 0.4597
vt 0.9293 0.5200
vt 0.4093 0.5200
vt 0.4093 0.4597
vt 0.9878 0.3437
vt 0.9878 0.2974
vt 0.4426 0.2974
vt 0.4426 0.3437
vt 0.9896 0.6407
vt 0.9896 0.5804
vt 0.9878 0.3901
vt 0.4426 0.3901
vt 0.9878 0.4364
vt 0.4426 0.4364
vt 0.9878 0.2510
vt 0.4386 0.2477
vt 0.9293 0.6407
vt 0.9293 0.5804
vt 0.4093 0.5804
vt 0.4093 0.6407
vt 0.3489 0.6407
vt 0.3489 0.5804
vt 0.9293 0.7010
vt 0.4093 0.7010
vt 0.9293 0.5200
vt 0.9293 0.4597
vt 0.4093 0.4597
vt 0.4093 0.5200
vt 0.9896 0.6407
vt 0.9896 0.5804
vt 0.3489 0.6407
vt 0.3489 0.5804
vn -1.0000 0.0000 0.0000
vn 0.0000 -0.0000 -1.0000
vn 1.0000 -0.0000 0.0000
vn 0.0000 0.0000 1.0000
vn 0.0000 -1.0000 0.0000
vn 0.0000 1.0000 -0.0000
vn 0.0058 0.5787 0.8155
vn -0.0054 -0.5725 -0.8199
vn 0.0036 0.5761 -0.8173
vn -0.0033 -0.5711 0.8209
vn 0.0108 -0.9999 0.0000
vn -0.0110 0.9999 -0.0000
vn -0.0026 1.0000 -0.0000
vn 0.0015 -1.0000 0.0000
vn -0.0058 0.5787 0.8155
vn 0.0054 -0.5725 -0.8199
vn -0.0036 0.5761 -0.8173
vn 0.0033 -0.5711 0.8209
vn -0.0108 -0.9999 0.0000
vn 0.0110 0.9999 -0.0000
vn 0.0026 1.0000 -0.0000
vn -0.0015 -1.0000 0.0000
usemtl Crate
s 1
f 1/1/1 2/2/1 4/3/1 3/4/1
f 3/4/2 4/5/2 8/6/2 7/7/2
f 7/8/3 8/6/3 6/9/3 5/10/3
f 5/10/4 6/11/4 2/2/4 1/12/4
f 3/4/5 7/8/5 5/13/5 1/12/5
f 8/14/6 4/5/6 2/2/6 6/9/6
f 10/15/2 14/16/2 13/17/2 9/18/2
f 12/19/5 16/20/5 14/21/5 10/22/5
f 11/23/4 15/24/4 16/20/4 12/19/4
f 9/18/6 13/17/6 15/24/6 11/23/6
f 17/25/2 21/26/2 22/27/2 18/28/2
f 18/29/6 22/30/6 24/31/6 20/32/6
f 20/32/4 24/31/4 23/33/4 19/34/4
f 19/34/5 23/33/5 21/26/5 17/25/5
f 26/35/4 25/36/4 29/37/4 30/38/4
f 28/39/5 26/40/5 30/41/5 32/42/5
f 27/43/2 28/39/2 32/42/2 31/44/2
f 25/36/6 27/43/6 31/44/6 29/37/6
f 33/45/4 34/46/4 38/47/4 37/48/4
f 34/49/6 36/50/6 40/51/6 38/52/6
f 36/50/2 35/53/2 39/54/2 40/51/2
f 35/53/5 33/45/5 37/48/5 39/54/5
f 41/55/1 42/56/1 46/57/1 45/58/1
f 42/56/7 44/59/7 48/60/7 46/57/7
f 43/61/8 41/55/8 45/58/8 47/62/8
f 49/63/1 53/64/1 54/65/1 50/66/1
f 50/66/9 54/65/9 56/67/9 52/68/9
f 51/69/10 55/70/10 53/64/10 49/63/10
f 58/71/4 74/72/4 76/73/4 60/74/4
f 60/74/3 76/73/3 75/75/3 59/76/3
f 59/77/2 75/78/2 73/79/2 57/80/2
f 61/81/1 69/82/1 70/83/1 62/84/1
f 62/84/11 70/83/11 72/85/11 64/86/11
f 64/87/3 72/88/3 71/89/3 63/90/3
f 63/90/12 71/89/12 69/82/12 61/81/12
f 66/91/1 82/92/1 81/93/1 65/94/1
f 64/95/4 63/96/4 61/81/4 62/84/4
f 68/97/2 84/98/2 82/92/2 66/91/2
f 67/99/3 83/100/3 84/98/3 68/97/3
f 65/94/4 81/93/4 83/101/4 67/102/4
f 78/103/1 86/104/1 85/105/1 77/106/1
f 72/107/2 70/83/2 69/82/2 71/108/2
f 80/109/13 88/110/13 86/104/13 78/103/13
f 79/111/3 87/112/3 88/113/3 80/114/3
f 77/106/14 85/105/14 87/112/14 79/111/14
f 80/115/4 78/103/4 77/106/4 79/116/4
f 57/80/1 73/79/1 74/72/1 58/71/1
f 88/117/2 87/118/2 85/105/2 86/104/2
f 89/119/3 93/120/3 94/121/3 90/122/3
f 90/122/15 94/121/15 96/123/15 92/124/15
f 91/125/16 95/126/16 93/120/16 89/119/16
f 97/127/3 98/128/3 102/129/3 101/130/3
f 98/128/17 100/131/17 104/132/17 102/129/17
f 99/133/18 97/127/18 101/130/18 103/134/18
f 106/135/4 108/136/4 124/137/4 122/138/4
f 108/136/1 107/139/1 123/140/1 124/137/1
f 107/141/2 105/142/2 121/143/2 123/144/2
f 109/145/3 110/146/3 118/147/3 117/148/3
f 110/146/19 112/149/19 120/150/19 118/147/19
f 112/151/1 111/152/1 119/153/1 120/154/1
f 111/152/20 109/145/20 117/148/20 119/153/20
f 114/155/3 113/156/3 129/157/3 130/158/3
f 112/159/4 110/146/4 109/145/4 111/160/4
f 116/161/2 114/155/2 130/158/2 132/162/2
f 115/163/1 116/161/1 132/162/1 131/164/1
f 113/156/4 115/165/4 131/166/4 129/157/4
f 126/167/3 125/168/3 133/169/3 134/170/3
f 120/171/2 119/172/2 117/148/2 118/147/2
f 128/173/21 126/167/21 134/170/21 136/174/21
f 127/175/1 128/176/1 136/177/1 135/178/1
f 125/168/22 127/175/22 135/178/22 133/169/22
f 128/179/4 127/180/4 125/168/4 126/167/4
f 105/142/3 106/135/3 122/138/3 121/143/3
f 136/181/2 134/170/2 133/169/2 135/182/2
